<svg id="Flat" height="512" viewBox="0 0 512 512" width="512" xmlns="http://www.w3.org/2000/svg"><path d="m400 424h-48v64h-192v-64h-48c0-216 32-240 32-240l64-40h96l64 40s32 24 32 240z" fill="#f4ae40"/><path d="m376.97 199.93-3.06 6.13a56.287 56.287 0 0 0 -5.91 25.05v192.89h-16v-192.89a72.386 72.386 0 0 1 7.6-32.2l7.68-15.36.72.45s3.9 2.93 8.97 15.93z" fill="#e8a53d"/><path d="m304 336h48v80h-48z" fill="#f48935"/><path d="m160 231.11v192.89h-16v-192.89a56.287 56.287 0 0 0 -5.91-25.05l-3.06-6.12v-.01c5.07-13 8.97-15.93 8.97-15.93l.72-.45 7.68 15.36a72.386 72.386 0 0 1 7.6 32.2z" fill="#e8a53d"/><path d="m160 336h48v80h-48z" fill="#f48935" transform="matrix(-1 0 0 -1 368 752)"/><path d="m232 488v-322.01a8 8 0 0 1 16 0v322.01z" fill="#e8a53d"/><g fill="#e07e30"><circle cx="272" cy="264" r="8"/><circle cx="272" cy="328" r="8"/><circle cx="272" cy="392" r="8"/></g><path d="m344.02 112s-40.02 56-88.02 56-88.02-56-88.02-56l40.02-40h88z" fill="#f48935"/><path d="m208 128a82.428 82.428 0 0 0 3.98 25.57c-26.15-16.6-44-41.57-44-41.57l.02-.02a.265.265 0 0 0 .06-.05c1.27-1.04 15.28-14.04 48.51-20.44a79.241 79.241 0 0 0 -8.57 36.51z" fill="none"/><path d="m344.02 112s-17.85 24.98-44.01 41.57a82.134 82.134 0 0 0 3.99-25.57 79.074 79.074 0 0 0 -8.57-36.5c27.98 5.38 42.33 15.44 46.92 19.11l1.49 1.24c.08.06.13.11.16.13z" fill="none"/><path d="m304 128a82.134 82.134 0 0 1 -3.99 25.57c-13.01 8.25-28.07 14.43-44.01 14.43s-31-6.18-44.01-14.43h-.01a82.428 82.428 0 0 1 -3.98-25.57 79.241 79.241 0 0 1 8.57-36.51 209.6 209.6 0 0 1 39.43-3.49 208.691 208.691 0 0 1 39.43 3.5 79.074 79.074 0 0 1 8.57 36.5z" fill="#e07e30"/><path d="m344 112c-.03-.02-.08-.07-.16-.13-.25-.21-.74-.64-1.49-1.24-6.39-5.11-31.7-22.61-86.35-22.61-62.02 0-86.25 22.54-87.94 23.93a.265.265 0 0 1 -.06.05l43.45-79.64a16.009 16.009 0 0 1 14.05-8.34h61a16.009 16.009 0 0 1 14.05 8.34z" fill="#f4ae40"/><circle cx="272" cy="200" fill="#e07e30" r="8"/><path d="m160 352h48v16h-48z" fill="#e07e30"/><path d="m304 352h48v16h-48z" fill="#e07e30"/></svg>