<?xml version="1.0" encoding="iso-8859-1"?>
<!-- Generator: Adobe Illustrator 19.0.0, SVG Export Plug-In . SVG Version: 6.00 Build 0)  -->
<svg version="1.1" id="Capa_1" xmlns="http://www.w3.org/2000/svg" xmlns:xlink="http://www.w3.org/1999/xlink" x="0px" y="0px"
	 viewBox="0 0 512 512" style="enable-background:new 0 0 512 512;" xml:space="preserve">
<g transform="translate(0 -1)">
	<path style="fill:#7F5B53;" d="M141.381,199.133L28.304,214.23l-1.873,0.447c-0.666-5.371-1.012-10.507-1.802-15.828
		c-2.937-19.776-6.948-39.017-9.903-54.027c-1.589-8.258,0.307-16.806,5.239-23.618c4.932-6.812,12.46-11.282,20.802-12.351
		l129.392-16.11l6.181,62.213C178.571,176.717,163.074,196.302,141.381,199.133z"/>
	<path style="fill:#F3D55B;" d="M503.172,429.161c3.251-1.773-11.446-25.667-8.828-27.63v-26.483
		c0-29.252-23.713-52.966-52.966-52.966h-70.885c-17.6,0.053-34.579-6.499-47.581-18.361
		c-25.423-23.481-66.825-66.737-84.568-113.964c-21.274-56.761-19.774-130.737-18.361-157.484c0.142-2.629-0.911-5.181-2.864-6.946
		c-1.953-1.765-4.599-2.554-7.2-2.147c-19.774,3.266-59.851,16.419-59.851,69.561l5.385,54.201
		c1.945,18.96-11.556,36.022-30.455,38.488l-98.516,13.153l-1.854,0.265c3.917,23.249,4.541,46.933,1.854,70.356
		c-1.766,8.916-3.972,17.479-6.179,25.865c-8.739,32.839-18.538,62.411-11.476,97.633c0,0-11.036,33.059,0,36.458l15.206,10.137
		c24.259,16.173,53.764,22.505,82.523,17.712l93.386-15.564c13.717-2.286,27.736-2.06,41.372,0.667l87.304,17.461
		c16.134,3.227,32.774,2.946,48.79-0.822L503.172,429.161z"/>
	<path style="fill:#E4C05C;" d="M379.586,322.083v1.148c-17.297,18.604-39.987,31.323-64.883,36.37
		c-4.029,0.641-8.102,0.965-12.182,0.971c-20.142-0.129-39.649-7.067-55.349-19.686c-70.621-52.966-220.69-44.138-220.69-44.138
		l-6.179-1.677c2.207-8.386,4.414-16.949,6.179-25.865c2.688-23.423,2.063-47.107-1.854-70.356l1.854-0.265l98.516-13.153
		c18.899-2.466,32.4-19.529,30.455-38.488l-5.385-54.201c0-53.142,40.077-66.295,59.851-69.561c2.601-0.407,5.246,0.382,7.2,2.147
		c1.953,1.765,3.006,4.317,2.864,6.946c-1.412,26.748-2.913,100.723,18.361,157.484c17.743,47.228,59.145,90.483,84.568,113.964
		c13.002,11.862,29.981,18.414,47.581,18.361H379.586z"/>
	<path style="fill:#F18D46;" d="M512,426.69v3.001c0,15.12-9.615,28.567-23.923,33.457c-0.883,0.265-1.677,0.618-2.56,0.794
		c-6.003,2.03-11.829,3.884-17.655,5.561c-6.003,1.765-11.829,3.354-17.655,4.855c-6.003,1.589-11.829,3.001-17.655,4.237
		c-6.003,1.324-11.829,2.56-17.655,3.619c-6.003,1.148-11.829,2.119-17.655,3.001c-6.003,0.883-11.917,1.677-17.655,2.295
		c-6.091,0.794-11.917,1.324-17.655,1.766c-6.091,0.53-11.917,0.883-17.655,1.148c-6.091,0.265-12.006,0.441-17.655,0.441
		c-6.179,0.088-12.094,0.088-17.655-0.088c-6.179-0.177-12.094-0.441-17.655-0.794c-6.356-0.441-12.27-0.883-17.655-1.501
		c-6.621-0.706-12.447-1.501-17.655-2.207c-7.15-1.148-12.888-2.207-17.214-3.178c-5.43-1.127-9.309-5.93-9.269-11.476v-2.383
		c-0.078-9.037-6.906-16.585-15.89-17.567c-18.867-1.664-37.853-1.427-56.673,0.706c-8.962,0.97-15.745,8.552-15.713,17.567
		c-0.02,6.239-4.894,11.384-11.123,11.741c-5.297,0.353-10.417,0.53-15.36,0.706c-6.179,0.265-12.094,0.353-17.655,0.353
		c-6.268,0-12.182-0.088-17.655-0.353c-6.356-0.265-12.27-0.706-17.655-1.236c-6.532-0.618-12.359-1.412-17.655-2.295
		c-5.955-0.912-11.851-2.18-17.655-3.796c-9.637-1.8-18.711-5.853-26.483-11.829v-52.877l8.828-17.655
		c0,0,97.103,35.31,167.724,26.483c70.621-8.828,97.103,17.655,141.241,17.655s141.241-8.828,176.552-35.31l3.001,1.501
		C506.332,407.49,512.011,416.659,512,426.69z"/>
	<g>
		<path style="fill:#E57E25;" d="M44.138,463.236v15.625c-5.955-0.912-11.851-2.18-17.655-3.796v-11.829
			c0-4.875,3.952-8.828,8.828-8.828S44.138,458.361,44.138,463.236z"/>
		<path style="fill:#E57E25;" d="M79.448,472.064v10.328c-6.356-0.265-12.27-0.706-17.655-1.236v-9.092
			c0-4.875,3.952-8.828,8.828-8.828S79.448,467.188,79.448,472.064z"/>
		<path style="fill:#E57E25;" d="M114.759,472.064v10.328c-6.179,0.265-12.094,0.353-17.655,0.353v-10.681
			c0-4.875,3.952-8.828,8.828-8.828C110.806,463.236,114.759,467.188,114.759,472.064z"/>
		<path style="fill:#E57E25;" d="M273.655,480.891v7.592c-6.621-0.706-12.447-1.501-17.655-2.207v-5.385
			c0-4.875,3.952-8.828,8.828-8.828S273.655,476.016,273.655,480.891z"/>
		<path style="fill:#E57E25;" d="M308.966,480.891v9.887c-6.179-0.177-12.094-0.441-17.655-0.794v-9.092
			c0-4.875,3.952-8.828,8.828-8.828S308.966,476.016,308.966,480.891z"/>
		<path style="fill:#E57E25;" d="M344.276,480.891v9.534c-6.091,0.265-12.006,0.441-17.655,0.441v-9.975
			c0-4.875,3.952-8.828,8.828-8.828S344.276,476.016,344.276,480.891z"/>
		<path style="fill:#E57E25;" d="M379.586,480.891v6.621c-6.091,0.794-11.917,1.324-17.655,1.766v-8.386
			c0-4.875,3.952-8.828,8.828-8.828S379.586,476.016,379.586,480.891z"/>
		<path style="fill:#E57E25;" d="M414.897,473.299v8.916c-6.003,1.148-11.829,2.119-17.655,3.001v-11.917
			c0-4.875,3.952-8.828,8.828-8.828S414.897,468.424,414.897,473.299z"/>
		<path style="fill:#E57E25;" d="M450.207,464.472v9.887c-6.003,1.589-11.829,3.001-17.655,4.237v-14.124
			c0-4.875,3.952-8.828,8.828-8.828S450.207,459.596,450.207,464.472z"/>
		<path style="fill:#E57E25;" d="M485.517,455.644v8.298c-6.003,2.03-11.829,3.884-17.655,5.561v-13.859
			c0-4.875,3.952-8.828,8.828-8.828S485.517,450.769,485.517,455.644z"/>
	</g>
	<g>
		<path style="fill:#B19046;" d="M195.97,164.157c0.553-0.098,1.089-0.277,1.59-0.53c0.563-0.194,1.098-0.462,1.591-0.797
			c0.44-0.349,0.879-0.703,1.323-1.056c0.353-0.444,0.707-0.884,1.056-1.323c0.335-0.492,0.603-1.027,0.797-1.591
			c0.253-0.501,0.432-1.037,0.53-1.59c0.102-0.583,0.161-1.172,0.177-1.763c-0.014-1.155-0.254-2.296-0.707-3.358
			c-0.449-1.068-1.076-2.051-1.854-2.909c-0.444-0.353-0.884-0.707-1.323-1.06c-0.492-0.335-1.027-0.603-1.591-0.797
			c-0.501-0.254-1.037-0.431-1.59-0.526c-1.72-0.36-3.51-0.176-5.121,0.526c-2.213,0.811-3.956,2.554-4.767,4.767
			c-0.452,1.063-0.69,2.204-0.703,3.358c0.014,0.591,0.073,1.181,0.177,1.763c0.095,0.554,0.272,1.09,0.526,1.59
			c0.194,0.563,0.462,1.098,0.797,1.591c0.353,0.44,0.707,0.879,1.06,1.323c0.858,0.778,1.842,1.405,2.909,1.854
			c1.062,0.453,2.203,0.693,3.358,0.707C194.798,164.318,195.387,164.259,195.97,164.157z"/>
		<path style="fill:#B19046;" d="M211.686,189.049c-0.098-0.553-0.277-1.089-0.53-1.59c-0.195-0.562-0.463-1.095-0.797-1.586
			c-0.349-0.444-0.703-0.884-1.056-1.323c-0.859-0.78-1.844-1.409-2.914-1.858c-3.287-1.384-7.085-0.651-9.621,1.857
			c-1.613,1.692-2.527,3.93-2.56,6.268c0.013,1.153,0.251,2.292,0.703,3.353c0.449,1.07,1.077,2.055,1.857,2.914
			c1.693,1.611,3.931,2.525,6.268,2.56c1.158,0.03,2.306-0.212,3.353-0.707c1.08-0.429,2.068-1.058,2.914-1.854
			c1.611-1.693,2.525-3.93,2.56-6.267C211.846,190.224,211.787,189.633,211.686,189.049z"/>
		<path style="fill:#B19046;" d="M226.957,219.859c-3.539-3.267-8.995-3.267-12.534,0c-0.8,0.842-1.43,1.83-1.858,2.909
			c-0.452,1.063-0.691,2.204-0.703,3.358c0,4.875,3.952,8.828,8.828,8.828s8.828-3.952,8.828-8.828
			c-0.014-1.155-0.254-2.296-0.707-3.358C228.383,221.69,227.754,220.703,226.957,219.859z"/>
		<path style="fill:#B19046;" d="M255.293,258.08c-0.449-1.068-1.076-2.051-1.854-2.909c-3.539-3.267-8.995-3.267-12.534,0
			c-0.78,0.857-1.409,1.841-1.858,2.909c-0.451,1.063-0.69,2.203-0.702,3.358c-0.023,2.348,0.9,4.607,2.56,6.267
			c1.66,1.66,3.919,2.583,6.267,2.56c0.591-0.02,1.18-0.079,1.763-0.177c0.553-0.098,1.089-0.277,1.59-0.53
			c0.543-0.176,1.05-0.446,1.5-0.797c0.507-0.301,0.981-0.655,1.414-1.056c0.778-0.86,1.405-1.845,1.854-2.914
			C256.236,262.653,256.236,260.218,255.293,258.08L255.293,258.08z"/>
	</g>
</g>
<g>
</g>
<g>
</g>
<g>
</g>
<g>
</g>
<g>
</g>
<g>
</g>
<g>
</g>
<g>
</g>
<g>
</g>
<g>
</g>
<g>
</g>
<g>
</g>
<g>
</g>
<g>
</g>
<g>
</g>
</svg>
