<?xml version="1.0" encoding="iso-8859-1"?>
<!-- Generator: Adobe Illustrator 21.0.0, SVG Export Plug-In . SVG Version: 6.00 Build 0)  -->
<svg version="1.1" id="Capa_1" xmlns="http://www.w3.org/2000/svg" xmlns:xlink="http://www.w3.org/1999/xlink" x="0px" y="0px"
	 viewBox="0 0 511.756 511.756" style="enable-background:new 0 0 511.756 511.756;" xml:space="preserve">
<g transform="translate(-1)">
	<path style="fill:#3D324C;" d="M216.077,430.986h179.634c9.585,0,17.356,7.771,17.356,17.356v42.409
		c0,9.585-7.771,17.356-17.356,17.356H216.077c-4.793,0-8.678-3.885-8.678-8.678v-59.765
		C207.399,434.871,211.284,430.986,216.077,430.986z"/>
	<g>
		<path style="fill:#DF4D60;" d="M395.962,430.986v-48.51l94.008-94c13.393-13.396,13.391-35.112-0.004-48.505
			c-13.396-13.393-35.112-13.391-48.505,0.004l-30.868,30.876c-2.454,2.45-6.142,3.18-9.345,1.85s-5.289-4.457-5.286-7.925V71.076
			c-0.008-7.142-2.984-13.96-8.215-18.823c-5.231-4.863-12.248-7.333-19.372-6.82c-13.78,1.47-24.145,13.237-23.864,27.093V37.813
			c0.171-9.297-4.691-17.962-12.716-22.661c-8.024-4.699-17.961-4.699-25.985,0s-12.887,13.364-12.716,22.661v33.263
			c0.171-9.297-4.691-17.962-12.716-22.661s-17.961-4.699-25.985,0c-8.024,4.699-12.887,13.364-12.716,22.661v59.982
			c-0.01-7.141-2.987-13.957-8.218-18.817c-5.231-4.861-12.247-7.33-19.369-6.817c-13.768,1.5-24.102,13.281-23.795,27.127v166.417
			c0.005,13.67,2.052,27.262,6.075,40.327l28.203,91.691H395.962z"/>
		<path style="fill:#DF4D60;" d="M238.744,473.43c-3.961-1.438-6.317-5.514-5.585-9.664c0.732-4.15,4.339-7.175,8.553-7.171h128.547
			c9.513,0.024,17.219,7.73,17.243,17.243v8.574c0,4.793-3.885,8.678-8.678,8.678c-4.793,0-8.678-3.885-8.678-8.678v-8.574
			l-128.434,0.104C240.7,473.945,239.696,473.772,238.744,473.43z"/>
	</g>
	<g>
		<path style="fill:#802D40;" d="M284.581,431.012l-60.008-0.052l-28.238-91.631c-4.028-13.065-6.056-26.664-6.014-40.335v-22.068
			c19.243-0.161,38.07,5.595,53.934,16.488C291.514,325.948,284.338,380.688,284.581,431.012z"/>
		<path style="fill:#802D40;" d="M221.605,439.143c-2.557-0.93-4.529-3.005-5.328-5.606l-28.212-91.691
			c-4.276-13.888-6.45-28.338-6.448-42.869V132.55c-0.341-18.412,13.529-33.994,31.857-35.788
			c6.808-0.485,13.606,1.061,19.534,4.443v-30.13c0.003-12.249,6.52-23.572,17.11-29.727c10.59-6.155,23.654-6.213,34.299-0.152
			v-3.376c0-18.989,15.393-34.382,34.382-34.382c18.989,0,34.382,15.393,34.382,34.382v3.541c4.418-2.649,9.397-4.221,14.536-4.591
			c9.524-0.681,18.904,2.623,25.898,9.124c6.994,6.501,10.975,15.614,10.992,25.163v193.736L435.3,233.84
			c10.851-10.862,26.673-15.11,41.505-11.144c14.832,3.966,26.422,15.544,30.403,30.373s-0.251,30.654-11.102,41.516l-91.717,91.743
			c0.252,7.081,0.252,20.029,0.252,44.666c0,4.793-3.885,8.678-8.678,8.678h-171.39C223.56,439.675,222.554,439.495,221.605,439.143
			z M221.804,115.056c-2.257-0.817-4.661-1.151-7.055-0.981c-9.216,1.206-16.029,9.184-15.777,18.475v166.417
			c0.005,12.804,1.921,25.536,5.684,37.775l26.32,85.565h156.308V382.58c-0.03-2.336,0.884-4.586,2.534-6.239l94.008-94
			c6.589-6.449,9.205-15.942,6.848-24.855c-2.357-8.914-9.321-15.874-18.237-18.224c-8.916-2.35-18.406,0.272-24.851,6.866
			l-30.868,30.859c-4.874,5.043-12.366,6.531-18.796,3.732c-6.451-2.653-10.654-8.949-10.631-15.924V71.076
			c-0.014-4.733-1.992-9.248-5.462-12.467c-3.469-3.219-8.119-4.855-12.84-4.516c-9.21,1.192-16.031,9.148-15.803,18.432v127.089
			c0,4.793-3.885,8.678-8.678,8.678c-4.793,0-8.678-3.885-8.678-8.678V37.822c-0.015-4.5-1.797-8.813-4.964-12.01
			c-3.181-3.211-7.517-5.012-12.036-4.999c-9.397,0.014-17.012,7.629-17.026,17.026v161.775c0,4.793-3.885,8.678-8.678,8.678
			c-4.793,0-8.678-3.885-8.678-8.678V71.076c-0.209-9.256-7.772-16.65-17.031-16.65s-16.822,7.394-17.031,16.65v154.251
			c-0.003,1.012-0.179,2.016-0.521,2.968c-1.438,3.961-5.514,6.317-9.664,5.585c-4.15-0.732-7.175-4.339-7.171-8.553v-94.269
			c-0.035-7.158-4.517-13.54-11.238-16.002H221.804z"/>
	</g>
	<path style="fill:#3D324C;" d="M141.917,438.761l168.8-61.438c9.007-3.278,18.967,1.366,22.245,10.373l14.505,39.852
		c3.278,9.007-1.366,18.967-10.373,22.245l-168.8,61.438c-4.504,1.639-9.483-0.683-11.123-5.187l-20.441-56.161
		C135.091,445.38,137.413,440.4,141.917,438.761z"/>
	<g>
		<path style="fill:#E64C3C;" d="M310.927,377.269l-16.592-45.577l56.181-120.494c5.354-11.13,4.309-24.279-2.734-34.425
			c-7.044-10.145-18.999-15.72-31.298-14.594c-12.299,1.126-23.043,8.779-28.128,20.034l-18.475,39.554
			c-1.468,3.138-4.681,5.084-8.142,4.932c-3.461-0.152-6.491-2.372-7.678-5.626L187.821,39.045
			c-2.451-6.713-7.582-12.104-14.166-14.884c-6.583-2.78-14.026-2.698-20.546,0.227c-12.421,6.107-18.117,20.693-13.121,33.601
			l43.485,119.426L139.511,56.627l-11.377-31.241c-3.036-8.769-10.563-15.221-19.694-16.88s-18.446,1.732-24.374,8.872
			c-5.927,7.14-7.546,16.921-4.234,25.59l11.368,31.241l43.954,120.823L91.192,74.217c-3.002-8.807-10.53-15.304-19.681-16.986
			s-18.497,1.712-24.436,8.875s-7.542,16.977-4.193,25.658l20.515,56.407l32.239,88.576l-32.239-88.576
			c-2.453-6.711-7.585-12.101-14.167-14.881s-14.024-2.699-20.545,0.223c-12.428,6.101-18.129,20.691-13.13,33.601l56.953,156.42
			c4.671,12.841,11.235,24.912,19.473,35.814l57.873,76.522L310.927,377.269z"/>
		<path style="fill:#E64C3C;" d="M177.703,470.904c-4.214,0.003-7.822-3.021-8.553-7.171c-0.732-4.15,1.624-8.226,5.585-9.664
			l120.789-43.971c8.944-3.216,18.807,1.388,22.085,10.309l2.933,8.053c1.131,2.93,0.591,6.242-1.412,8.661
			c-2.003,2.419-5.156,3.567-8.246,3.002c-3.089-0.565-5.632-2.755-6.649-5.726l-2.933-8.053l-120.624,44.032
			C179.726,470.724,178.718,470.903,177.703,470.904z"/>
	</g>
	<path style="fill:#802D40;" d="M206.271,415.365l-56.407,20.48l-57.882-76.453c-8.251-10.898-14.804-22.981-19.439-35.84
		l-7.55-20.74c18.027-6.731,37.688-7.761,56.32-2.95C176.852,314.267,188.828,368.157,206.271,415.365z"/>
	<path style="fill:#C03A2B;" d="M149.873,444.549c-2.731,0-5.303-1.286-6.942-3.471L85.04,364.591
		c-8.755-11.594-15.729-24.432-20.688-38.088L7.424,170.083c-6.59-17.182,1.132-36.543,17.738-44.475
		c6.228-2.791,13.145-3.667,19.873-2.517L34.707,94.767c-4.186-11.512-1.933-24.381,5.915-33.786s20.106-13.926,32.181-11.869
		l-1.154-3.176C65.303,28.133,74.516,8.546,92.277,2.082s37.408,2.619,43.989,20.336l1.215,3.332c3.245-4,7.386-7.181,12.088-9.285
		c8.717-3.9,18.663-4.004,27.459-0.287s15.654,10.921,18.933,19.891l66.274,182.046l18.224-39.589
		c10.067-21.47,35.59-30.771,57.11-20.81c21.47,10.039,30.782,35.548,20.827,57.058l-54.827,117.63
		c2.655,6.561,7.081,18.736,15.508,41.88c0.787,2.166,0.68,4.555-0.296,6.642c-0.977,2.087-2.743,3.7-4.91,4.483L152.84,444.02
		C151.89,444.368,150.885,444.547,149.873,444.549z M39.211,139.935c-2.394,0.001-4.76,0.51-6.942,1.493
		c-8.237,4.275-11.915,14.081-8.522,22.719l56.953,156.42c4.37,12.031,10.513,23.341,18.224,33.558l53.994,71.402l146.883-53.465
		c-4.651-12.774-13.165-36.187-13.59-37.315c-0.824-2.184-0.734-4.609,0.252-6.725l56.19-120.494
		c3.968-8.312,3.169-18.115-2.094-25.675c-5.263-7.559-14.18-11.711-23.353-10.873c-9.173,0.837-17.19,6.535-20.997,14.923
		l-18.449,39.502c-2.858,6.402-9.386,10.361-16.384,9.936c-6.973-0.29-13.077-4.769-15.447-11.333L179.673,42.013
		c-1.632-4.443-5.034-8.009-9.395-9.849c-4.361-1.839-9.29-1.786-13.61,0.147c-8.229,4.278-11.9,14.079-8.504,22.71l43.459,119.426
		c1.194,2.942,0.686,6.302-1.325,8.759c-2.011,2.457-5.204,3.62-8.324,3.032c-3.12-0.588-5.67-2.834-6.648-5.855L119.986,28.345
		c-1.572-4.216-4.739-7.645-8.817-9.546c-4.085-1.934-8.776-2.144-13.017-0.581c-8.828,3.226-13.381,12.988-10.179,21.825
		l11.368,31.241v0.043l43.963,120.789c1.487,4.461-0.848,9.295-5.268,10.901c-4.419,1.606-9.314-0.599-11.038-4.974L83.044,77.176
		c-3.273-8.76-12.997-13.243-21.785-10.044c-8.788,3.199-13.353,12.884-10.228,21.699l52.753,144.922
		c1.131,2.93,0.591,6.242-1.412,8.661c-2.003,2.419-5.156,3.567-8.246,3.002c-3.089-0.565-5.632-2.755-6.649-5.726l-32.23-88.559
		C52.769,144.412,46.372,139.946,39.211,139.935z"/>
</g>
<g>
</g>
<g>
</g>
<g>
</g>
<g>
</g>
<g>
</g>
<g>
</g>
<g>
</g>
<g>
</g>
<g>
</g>
<g>
</g>
<g>
</g>
<g>
</g>
<g>
</g>
<g>
</g>
<g>
</g>
</svg>
